<mxfile host="65bd71144e">
    <diagram id="JG9--k70PnnKDUlAzeA9" name="Page-1">
        <mxGraphModel dx="2026" dy="1139" grid="1" gridSize="10" guides="1" tooltips="1" connect="1" arrows="1" fold="1" page="1" pageScale="1" pageWidth="3300" pageHeight="4681" math="0" shadow="0">
            <root>
                <mxCell id="0"/>
                <mxCell id="1" parent="0"/>
                <mxCell id="2" value="Login/Logout" style="html=1;dashed=0;whitespace=wrap;shape=mxgraph.dfd.start" parent="1" vertex="1">
                    <mxGeometry x="1430" y="680" width="320" height="60" as="geometry"/>
                </mxCell>
                <mxCell id="4" value="Register" style="html=1;dashed=0;whitespace=wrap;shape=mxgraph.dfd.start" parent="1" vertex="1">
                    <mxGeometry x="1430" y="780" width="320" height="60" as="geometry"/>
                </mxCell>
                <mxCell id="5" value="Make Orders (Transaction)" style="html=1;dashed=0;whitespace=wrap;shape=mxgraph.dfd.start" parent="1" vertex="1">
                    <mxGeometry x="1430" y="880" width="320" height="60" as="geometry"/>
                </mxCell>
                <mxCell id="6" value="Order Management" style="html=1;dashed=0;whitespace=wrap;shape=mxgraph.dfd.start" parent="1" vertex="1">
                    <mxGeometry x="1430" y="980" width="320" height="60" as="geometry"/>
                </mxCell>
                <mxCell id="7" value="Account Management" style="html=1;dashed=0;whitespace=wrap;shape=mxgraph.dfd.start" parent="1" vertex="1">
                    <mxGeometry x="1430" y="1180" width="320" height="60" as="geometry"/>
                </mxCell>
                <mxCell id="8" value="Alert/Notifications" style="html=1;dashed=0;whitespace=wrap;shape=mxgraph.dfd.start" parent="1" vertex="1">
                    <mxGeometry x="1430" y="1510" width="320" height="60" as="geometry"/>
                </mxCell>
                <mxCell id="9" value="View Transaction History" style="html=1;dashed=0;whitespace=wrap;shape=mxgraph.dfd.start" parent="1" vertex="1">
                    <mxGeometry x="1430" y="1290" width="320" height="60" as="geometry"/>
                </mxCell>
                <mxCell id="10" value="Track/View Sales" style="html=1;dashed=0;whitespace=wrap;shape=mxgraph.dfd.start" parent="1" vertex="1">
                    <mxGeometry x="1430" y="1400" width="320" height="60" as="geometry"/>
                </mxCell>
                <mxCell id="27" style="edgeStyle=none;html=1;exitX=0.5;exitY=0.5;exitDx=0;exitDy=0;exitPerimeter=0;entryX=1;entryY=0.5;entryDx=0;entryDy=0;entryPerimeter=0;endArrow=none;endFill=0;" parent="1" source="11" target="15" edge="1">
                    <mxGeometry relative="1" as="geometry"/>
                </mxCell>
                <mxCell id="28" style="edgeStyle=none;html=1;exitX=0.5;exitY=0.5;exitDx=0;exitDy=0;exitPerimeter=0;entryX=1;entryY=0.5;entryDx=0;entryDy=0;entryPerimeter=0;endArrow=none;endFill=0;" parent="1" source="11" target="7" edge="1">
                    <mxGeometry relative="1" as="geometry"/>
                </mxCell>
                <mxCell id="29" style="edgeStyle=none;html=1;exitX=0.5;exitY=0.5;exitDx=0;exitDy=0;exitPerimeter=0;entryX=1;entryY=0.5;entryDx=0;entryDy=0;entryPerimeter=0;endArrow=none;endFill=0;" parent="1" source="11" target="9" edge="1">
                    <mxGeometry relative="1" as="geometry"/>
                </mxCell>
                <mxCell id="31" style="edgeStyle=none;html=1;exitX=0.5;exitY=0.5;exitDx=0;exitDy=0;exitPerimeter=0;entryX=1;entryY=0.5;entryDx=0;entryDy=0;entryPerimeter=0;endArrow=none;endFill=0;" parent="1" source="11" target="6" edge="1">
                    <mxGeometry relative="1" as="geometry"/>
                </mxCell>
                <mxCell id="36" style="edgeStyle=none;html=1;exitX=0.5;exitY=0.5;exitDx=0;exitDy=0;exitPerimeter=0;entryX=1;entryY=0.5;entryDx=0;entryDy=0;entryPerimeter=0;endArrow=none;endFill=0;" parent="1" source="11" target="10" edge="1">
                    <mxGeometry relative="1" as="geometry"/>
                </mxCell>
                <mxCell id="38" style="edgeStyle=none;html=1;exitX=0.5;exitY=0.5;exitDx=0;exitDy=0;exitPerimeter=0;entryX=1;entryY=0.5;entryDx=0;entryDy=0;entryPerimeter=0;endArrow=none;endFill=0;" edge="1" parent="1" source="11" target="8">
                    <mxGeometry relative="1" as="geometry"/>
                </mxCell>
                <mxCell id="11" value="Admin" style="shape=umlActor;verticalLabelPosition=bottom;verticalAlign=top;html=1;outlineConnect=0;" parent="1" vertex="1">
                    <mxGeometry x="1960" y="925" width="50" height="90" as="geometry"/>
                </mxCell>
                <mxCell id="24" style="edgeStyle=none;html=1;exitX=0.5;exitY=0.5;exitDx=0;exitDy=0;exitPerimeter=0;entryX=-0.008;entryY=0.592;entryDx=0;entryDy=0;entryPerimeter=0;endArrow=none;endFill=0;" parent="1" source="14" target="2" edge="1">
                    <mxGeometry relative="1" as="geometry"/>
                </mxCell>
                <mxCell id="25" style="edgeStyle=none;html=1;exitX=0.5;exitY=0.5;exitDx=0;exitDy=0;exitPerimeter=0;entryX=0;entryY=0.5;entryDx=0;entryDy=0;entryPerimeter=0;endArrow=none;endFill=0;" parent="1" source="14" target="4" edge="1">
                    <mxGeometry relative="1" as="geometry"/>
                </mxCell>
                <mxCell id="26" style="edgeStyle=none;html=1;exitX=0.5;exitY=0.5;exitDx=0;exitDy=0;exitPerimeter=0;entryX=0;entryY=0.5;entryDx=0;entryDy=0;entryPerimeter=0;endArrow=none;endFill=0;" parent="1" source="14" target="6" edge="1">
                    <mxGeometry relative="1" as="geometry"/>
                </mxCell>
                <mxCell id="14" value="Staff" style="shape=umlActor;verticalLabelPosition=bottom;verticalAlign=top;html=1;outlineConnect=0;" parent="1" vertex="1">
                    <mxGeometry x="1190" y="1055" width="50" height="90" as="geometry"/>
                </mxCell>
                <mxCell id="15" value="Inventory Management" style="html=1;dashed=0;whitespace=wrap;shape=mxgraph.dfd.start" parent="1" vertex="1">
                    <mxGeometry x="1430" y="1080" width="320" height="60" as="geometry"/>
                </mxCell>
                <mxCell id="21" style="edgeStyle=none;html=1;exitX=0.5;exitY=0.5;exitDx=0;exitDy=0;exitPerimeter=0;entryX=0;entryY=0.5;entryDx=0;entryDy=0;entryPerimeter=0;endArrow=none;endFill=0;" parent="1" source="16" target="2" edge="1">
                    <mxGeometry relative="1" as="geometry"/>
                </mxCell>
                <mxCell id="22" style="edgeStyle=none;html=1;exitX=0.5;exitY=0.5;exitDx=0;exitDy=0;exitPerimeter=0;entryX=0;entryY=0.5;entryDx=0;entryDy=0;entryPerimeter=0;endArrow=none;endFill=0;" parent="1" source="16" target="4" edge="1">
                    <mxGeometry relative="1" as="geometry"/>
                </mxCell>
                <mxCell id="23" style="edgeStyle=none;html=1;exitX=0.5;exitY=0.5;exitDx=0;exitDy=0;exitPerimeter=0;entryX=0;entryY=0.5;entryDx=0;entryDy=0;entryPerimeter=0;endArrow=none;endFill=0;" parent="1" source="16" target="5" edge="1">
                    <mxGeometry relative="1" as="geometry"/>
                </mxCell>
                <mxCell id="16" value="Customer" style="shape=umlActor;verticalLabelPosition=bottom;verticalAlign=top;html=1;outlineConnect=0;" parent="1" vertex="1">
                    <mxGeometry x="1190" y="835" width="50" height="90" as="geometry"/>
                </mxCell>
                <mxCell id="32" style="edgeStyle=none;html=1;exitX=0.5;exitY=0.5;exitDx=0;exitDy=0;exitPerimeter=0;entryX=0;entryY=0.5;entryDx=0;entryDy=0;entryPerimeter=0;endArrow=none;endFill=0;" parent="1" source="18" target="4" edge="1">
                    <mxGeometry relative="1" as="geometry"/>
                </mxCell>
                <mxCell id="33" style="edgeStyle=none;html=1;exitX=0.5;exitY=0.5;exitDx=0;exitDy=0;exitPerimeter=0;entryX=0;entryY=0.5;entryDx=0;entryDy=0;entryPerimeter=0;endArrow=none;endFill=0;" parent="1" source="18" target="2" edge="1">
                    <mxGeometry relative="1" as="geometry"/>
                </mxCell>
                <mxCell id="34" style="edgeStyle=none;html=1;exitX=0.5;exitY=0.5;exitDx=0;exitDy=0;exitPerimeter=0;endArrow=none;endFill=0;entryX=0;entryY=0.5;entryDx=0;entryDy=0;entryPerimeter=0;" parent="1" source="18" target="10" edge="1">
                    <mxGeometry relative="1" as="geometry">
                        <mxPoint x="1420" y="1430" as="targetPoint"/>
                    </mxGeometry>
                </mxCell>
                <mxCell id="35" style="edgeStyle=none;html=1;exitX=0.5;exitY=0.5;exitDx=0;exitDy=0;exitPerimeter=0;entryX=0;entryY=0.5;entryDx=0;entryDy=0;entryPerimeter=0;endArrow=none;endFill=0;" parent="1" source="18" target="15" edge="1">
                    <mxGeometry relative="1" as="geometry"/>
                </mxCell>
                <mxCell id="18" value="Brand Partners" style="shape=umlActor;verticalLabelPosition=bottom;verticalAlign=top;html=1;outlineConnect=0;" parent="1" vertex="1">
                    <mxGeometry x="1190" y="1295" width="50" height="90" as="geometry"/>
                </mxCell>
                <mxCell id="20" style="edgeStyle=none;html=1;exitX=0.5;exitY=0.5;exitDx=0;exitDy=0;exitPerimeter=0;entryX=1;entryY=0.5;entryDx=0;entryDy=0;entryPerimeter=0;endArrow=none;endFill=0;" parent="1" source="19" target="37" edge="1">
                    <mxGeometry relative="1" as="geometry"/>
                </mxCell>
                <mxCell id="19" value="Developer" style="shape=umlActor;verticalLabelPosition=bottom;verticalAlign=top;html=1;outlineConnect=0;" parent="1" vertex="1">
                    <mxGeometry x="1960" y="1145" width="50" height="90" as="geometry"/>
                </mxCell>
                <mxCell id="37" value="System Audit Log" style="html=1;dashed=0;whitespace=wrap;shape=mxgraph.dfd.start" vertex="1" parent="1">
                    <mxGeometry x="1430" y="1620" width="320" height="60" as="geometry"/>
                </mxCell>
            </root>
        </mxGraphModel>
    </diagram>
</mxfile>